<mxfile host="app.diagrams.net" agent="Mozilla/5.0 (Windows NT 10.0; Win64; x64) AppleWebKit/537.36 (KHTML, like Gecko) Chrome/132.0.0.0 Safari/537.36 Edg/132.0.0.0" version="26.0.8" pages="3">
  <diagram name="PÃ¡gina-1" id="UQOlRWPr1Xxgckk8LA1K">
    <mxGraphModel dx="1042" dy="535" grid="1" gridSize="10" guides="1" tooltips="1" connect="1" arrows="1" fold="1" page="1" pageScale="1" pageWidth="827" pageHeight="1169" math="0" shadow="0">
      <root>
        <mxCell id="0" />
        <mxCell id="1" parent="0" />
        <mxCell id="5mWyYVNw0OlHFR2ji4CQ-1" value="" style="shape=table;startSize=0;container=1;collapsible=0;childLayout=tableLayout;" vertex="1" parent="1">
          <mxGeometry x="180" y="60" width="560" height="610" as="geometry" />
        </mxCell>
        <mxCell id="5mWyYVNw0OlHFR2ji4CQ-2" value="" style="shape=tableRow;horizontal=0;startSize=0;swimlaneHead=0;swimlaneBody=0;strokeColor=#666666;top=0;left=0;bottom=0;right=0;collapsible=0;dropTarget=0;fillColor=#f5f5f5;points=[[0,0.5],[1,0.5]];portConstraint=eastwest;gradientColor=#b3b3b3;" vertex="1" parent="5mWyYVNw0OlHFR2ji4CQ-1">
          <mxGeometry width="560" height="40" as="geometry" />
        </mxCell>
        <mxCell id="5mWyYVNw0OlHFR2ji4CQ-3" value="Category" style="shape=partialRectangle;html=1;whiteSpace=wrap;connectable=0;strokeColor=#666666;overflow=hidden;fillColor=#f5f5f5;top=0;left=0;bottom=0;right=0;pointerEvents=1;gradientColor=#b3b3b3;shadow=0;" vertex="1" parent="5mWyYVNw0OlHFR2ji4CQ-2">
          <mxGeometry width="260" height="40" as="geometry">
            <mxRectangle width="260" height="40" as="alternateBounds" />
          </mxGeometry>
        </mxCell>
        <mxCell id="5mWyYVNw0OlHFR2ji4CQ-4" value="Description" style="shape=partialRectangle;html=1;whiteSpace=wrap;connectable=0;strokeColor=#666666;overflow=hidden;fillColor=#f5f5f5;top=0;left=0;bottom=0;right=0;pointerEvents=1;gradientColor=#b3b3b3;" vertex="1" parent="5mWyYVNw0OlHFR2ji4CQ-2">
          <mxGeometry x="260" width="300" height="40" as="geometry">
            <mxRectangle width="300" height="40" as="alternateBounds" />
          </mxGeometry>
        </mxCell>
        <mxCell id="5mWyYVNw0OlHFR2ji4CQ-5" value="" style="shape=tableRow;horizontal=0;startSize=0;swimlaneHead=0;swimlaneBody=0;strokeColor=#666666;top=0;left=0;bottom=0;right=0;collapsible=0;dropTarget=0;fillColor=#f5f5f5;points=[[0,0.5],[1,0.5]];portConstraint=eastwest;gradientColor=#b3b3b3;" vertex="1" parent="5mWyYVNw0OlHFR2ji4CQ-1">
          <mxGeometry y="40" width="560" height="70" as="geometry" />
        </mxCell>
        <mxCell id="5mWyYVNw0OlHFR2ji4CQ-6" value="Flowchart" style="shape=partialRectangle;html=1;whiteSpace=wrap;connectable=0;strokeColor=#666666;overflow=hidden;fillColor=#f5f5f5;top=0;left=0;bottom=0;right=0;pointerEvents=1;gradientColor=#b3b3b3;" vertex="1" parent="5mWyYVNw0OlHFR2ji4CQ-5">
          <mxGeometry width="260" height="70" as="geometry">
            <mxRectangle width="260" height="70" as="alternateBounds" />
          </mxGeometry>
        </mxCell>
        <mxCell id="5mWyYVNw0OlHFR2ji4CQ-7" value="Represents processes step-by-step using symbols like arrows, ovals, and rectangles. Helps visualize workflows and decisions." style="shape=partialRectangle;html=1;whiteSpace=wrap;connectable=0;strokeColor=#666666;overflow=hidden;fillColor=#f5f5f5;top=0;left=0;bottom=0;right=0;pointerEvents=1;gradientColor=#b3b3b3;" vertex="1" parent="5mWyYVNw0OlHFR2ji4CQ-5">
          <mxGeometry x="260" width="300" height="70" as="geometry">
            <mxRectangle width="300" height="70" as="alternateBounds" />
          </mxGeometry>
        </mxCell>
        <mxCell id="5mWyYVNw0OlHFR2ji4CQ-8" value="" style="shape=tableRow;horizontal=0;startSize=0;swimlaneHead=0;swimlaneBody=0;strokeColor=#666666;top=0;left=0;bottom=0;right=0;collapsible=0;dropTarget=0;fillColor=#f5f5f5;points=[[0,0.5],[1,0.5]];portConstraint=eastwest;gradientColor=#b3b3b3;" vertex="1" parent="5mWyYVNw0OlHFR2ji4CQ-1">
          <mxGeometry y="110" width="560" height="70" as="geometry" />
        </mxCell>
        <mxCell id="5mWyYVNw0OlHFR2ji4CQ-9" value="Class Diagram" style="shape=partialRectangle;html=1;whiteSpace=wrap;connectable=0;strokeColor=#666666;overflow=hidden;fillColor=#f5f5f5;top=0;left=0;bottom=0;right=0;pointerEvents=1;gradientColor=#b3b3b3;" vertex="1" parent="5mWyYVNw0OlHFR2ji4CQ-8">
          <mxGeometry width="260" height="70" as="geometry">
            <mxRectangle width="260" height="70" as="alternateBounds" />
          </mxGeometry>
        </mxCell>
        <mxCell id="5mWyYVNw0OlHFR2ji4CQ-10" value="Used in object-oriented design to show classes, attributes, methods, and relationships. Commonly used in software development." style="shape=partialRectangle;html=1;whiteSpace=wrap;connectable=0;strokeColor=#666666;overflow=hidden;fillColor=#f5f5f5;top=0;left=0;bottom=0;right=0;pointerEvents=1;gradientColor=#b3b3b3;" vertex="1" parent="5mWyYVNw0OlHFR2ji4CQ-8">
          <mxGeometry x="260" width="300" height="70" as="geometry">
            <mxRectangle width="300" height="70" as="alternateBounds" />
          </mxGeometry>
        </mxCell>
        <mxCell id="5mWyYVNw0OlHFR2ji4CQ-11" value="" style="shape=tableRow;horizontal=0;startSize=0;swimlaneHead=0;swimlaneBody=0;strokeColor=#666666;top=0;left=0;bottom=0;right=0;collapsible=0;dropTarget=0;fillColor=#f5f5f5;points=[[0,0.5],[1,0.5]];portConstraint=eastwest;gradientColor=#b3b3b3;" vertex="1" parent="5mWyYVNw0OlHFR2ji4CQ-1">
          <mxGeometry y="180" width="560" height="40" as="geometry" />
        </mxCell>
        <mxCell id="5mWyYVNw0OlHFR2ji4CQ-12" value="Entity-Relationship (ER) Diagram" style="shape=partialRectangle;html=1;whiteSpace=wrap;connectable=0;strokeColor=#666666;overflow=hidden;fillColor=#f5f5f5;top=0;left=0;bottom=0;right=0;pointerEvents=1;gradientColor=#b3b3b3;" vertex="1" parent="5mWyYVNw0OlHFR2ji4CQ-11">
          <mxGeometry width="260" height="40" as="geometry">
            <mxRectangle width="260" height="40" as="alternateBounds" />
          </mxGeometry>
        </mxCell>
        <mxCell id="5mWyYVNw0OlHFR2ji4CQ-13" value="Illustrates data entities, attributes, and their relationships, primarily used in database design." style="shape=partialRectangle;html=1;whiteSpace=wrap;connectable=0;strokeColor=#666666;overflow=hidden;fillColor=#f5f5f5;top=0;left=0;bottom=0;right=0;pointerEvents=1;gradientColor=#b3b3b3;" vertex="1" parent="5mWyYVNw0OlHFR2ji4CQ-11">
          <mxGeometry x="260" width="300" height="40" as="geometry">
            <mxRectangle width="300" height="40" as="alternateBounds" />
          </mxGeometry>
        </mxCell>
        <mxCell id="5mWyYVNw0OlHFR2ji4CQ-14" value="" style="shape=tableRow;horizontal=0;startSize=0;swimlaneHead=0;swimlaneBody=0;strokeColor=#666666;top=0;left=0;bottom=0;right=0;collapsible=0;dropTarget=0;fillColor=#f5f5f5;points=[[0,0.5],[1,0.5]];portConstraint=eastwest;gradientColor=#b3b3b3;" vertex="1" parent="5mWyYVNw0OlHFR2ji4CQ-1">
          <mxGeometry y="220" width="560" height="60" as="geometry" />
        </mxCell>
        <mxCell id="5mWyYVNw0OlHFR2ji4CQ-15" value="Use Case Diagram" style="shape=partialRectangle;html=1;whiteSpace=wrap;connectable=0;strokeColor=#666666;overflow=hidden;fillColor=#f5f5f5;top=0;left=0;bottom=0;right=0;pointerEvents=1;gradientColor=#b3b3b3;" vertex="1" parent="5mWyYVNw0OlHFR2ji4CQ-14">
          <mxGeometry width="260" height="60" as="geometry">
            <mxRectangle width="260" height="60" as="alternateBounds" />
          </mxGeometry>
        </mxCell>
        <mxCell id="5mWyYVNw0OlHFR2ji4CQ-16" value="Describes the interactions between users (actors) and a system to define system functionality." style="shape=partialRectangle;html=1;whiteSpace=wrap;connectable=0;strokeColor=#666666;overflow=hidden;fillColor=#f5f5f5;top=0;left=0;bottom=0;right=0;pointerEvents=1;gradientColor=#b3b3b3;" vertex="1" parent="5mWyYVNw0OlHFR2ji4CQ-14">
          <mxGeometry x="260" width="300" height="60" as="geometry">
            <mxRectangle width="300" height="60" as="alternateBounds" />
          </mxGeometry>
        </mxCell>
        <mxCell id="5mWyYVNw0OlHFR2ji4CQ-17" value="" style="shape=tableRow;horizontal=0;startSize=0;swimlaneHead=0;swimlaneBody=0;strokeColor=#666666;top=0;left=0;bottom=0;right=0;collapsible=0;dropTarget=0;fillColor=#f5f5f5;points=[[0,0.5],[1,0.5]];portConstraint=eastwest;gradientColor=#b3b3b3;" vertex="1" parent="5mWyYVNw0OlHFR2ji4CQ-1">
          <mxGeometry y="280" width="560" height="60" as="geometry" />
        </mxCell>
        <mxCell id="5mWyYVNw0OlHFR2ji4CQ-18" value="Sequence Diagram" style="shape=partialRectangle;html=1;whiteSpace=wrap;connectable=0;strokeColor=#666666;overflow=hidden;fillColor=#f5f5f5;top=0;left=0;bottom=0;right=0;pointerEvents=1;gradientColor=#b3b3b3;" vertex="1" parent="5mWyYVNw0OlHFR2ji4CQ-17">
          <mxGeometry width="260" height="60" as="geometry">
            <mxRectangle width="260" height="60" as="alternateBounds" />
          </mxGeometry>
        </mxCell>
        <mxCell id="5mWyYVNw0OlHFR2ji4CQ-19" value="Shows the flow of messages and interactions between objects over time in a system. Useful for modeling processes and workflows." style="shape=partialRectangle;html=1;whiteSpace=wrap;connectable=0;strokeColor=#666666;overflow=hidden;fillColor=#f5f5f5;top=0;left=0;bottom=0;right=0;pointerEvents=1;gradientColor=#b3b3b3;" vertex="1" parent="5mWyYVNw0OlHFR2ji4CQ-17">
          <mxGeometry x="260" width="300" height="60" as="geometry">
            <mxRectangle width="300" height="60" as="alternateBounds" />
          </mxGeometry>
        </mxCell>
        <mxCell id="5mWyYVNw0OlHFR2ji4CQ-20" value="" style="shape=tableRow;horizontal=0;startSize=0;swimlaneHead=0;swimlaneBody=0;strokeColor=#666666;top=0;left=0;bottom=0;right=0;collapsible=0;dropTarget=0;fillColor=#f5f5f5;points=[[0,0.5],[1,0.5]];portConstraint=eastwest;gradientColor=#b3b3b3;" vertex="1" parent="5mWyYVNw0OlHFR2ji4CQ-1">
          <mxGeometry y="340" width="560" height="50" as="geometry" />
        </mxCell>
        <mxCell id="5mWyYVNw0OlHFR2ji4CQ-21" value="&#xa;State Machine Diagram&#xa;&#xa;" style="shape=partialRectangle;html=1;whiteSpace=wrap;connectable=0;strokeColor=#666666;overflow=hidden;fillColor=#f5f5f5;top=0;left=0;bottom=0;right=0;pointerEvents=1;gradientColor=#b3b3b3;" vertex="1" parent="5mWyYVNw0OlHFR2ji4CQ-20">
          <mxGeometry width="260" height="50" as="geometry">
            <mxRectangle width="260" height="50" as="alternateBounds" />
          </mxGeometry>
        </mxCell>
        <mxCell id="5mWyYVNw0OlHFR2ji4CQ-22" value="Represents the various states an object can be in and the transitions between these states." style="shape=partialRectangle;html=1;whiteSpace=wrap;connectable=0;strokeColor=#666666;overflow=hidden;fillColor=#f5f5f5;top=0;left=0;bottom=0;right=0;pointerEvents=1;gradientColor=#b3b3b3;" vertex="1" parent="5mWyYVNw0OlHFR2ji4CQ-20">
          <mxGeometry x="260" width="300" height="50" as="geometry">
            <mxRectangle width="300" height="50" as="alternateBounds" />
          </mxGeometry>
        </mxCell>
        <mxCell id="5mWyYVNw0OlHFR2ji4CQ-23" value="" style="shape=tableRow;horizontal=0;startSize=0;swimlaneHead=0;swimlaneBody=0;strokeColor=#666666;top=0;left=0;bottom=0;right=0;collapsible=0;dropTarget=0;fillColor=#f5f5f5;points=[[0,0.5],[1,0.5]];portConstraint=eastwest;gradientColor=#b3b3b3;" vertex="1" parent="5mWyYVNw0OlHFR2ji4CQ-1">
          <mxGeometry y="390" width="560" height="60" as="geometry" />
        </mxCell>
        <mxCell id="5mWyYVNw0OlHFR2ji4CQ-24" value="Activity Diagram" style="shape=partialRectangle;html=1;whiteSpace=wrap;connectable=0;strokeColor=#666666;overflow=hidden;fillColor=#f5f5f5;top=0;left=0;bottom=0;right=0;pointerEvents=1;gradientColor=#b3b3b3;" vertex="1" parent="5mWyYVNw0OlHFR2ji4CQ-23">
          <mxGeometry width="260" height="60" as="geometry">
            <mxRectangle width="260" height="60" as="alternateBounds" />
          </mxGeometry>
        </mxCell>
        <mxCell id="5mWyYVNw0OlHFR2ji4CQ-25" value="Depicts workflows of business processes or system operations, similar to flowcharts but with more details." style="shape=partialRectangle;html=1;whiteSpace=wrap;connectable=0;strokeColor=#666666;overflow=hidden;fillColor=#f5f5f5;top=0;left=0;bottom=0;right=0;pointerEvents=1;gradientColor=#b3b3b3;" vertex="1" parent="5mWyYVNw0OlHFR2ji4CQ-23">
          <mxGeometry x="260" width="300" height="60" as="geometry">
            <mxRectangle width="300" height="60" as="alternateBounds" />
          </mxGeometry>
        </mxCell>
        <mxCell id="5mWyYVNw0OlHFR2ji4CQ-26" value="" style="shape=tableRow;horizontal=0;startSize=0;swimlaneHead=0;swimlaneBody=0;strokeColor=#666666;top=0;left=0;bottom=0;right=0;collapsible=0;dropTarget=0;fillColor=#f5f5f5;points=[[0,0.5],[1,0.5]];portConstraint=eastwest;gradientColor=#b3b3b3;" vertex="1" parent="5mWyYVNw0OlHFR2ji4CQ-1">
          <mxGeometry y="450" width="560" height="60" as="geometry" />
        </mxCell>
        <mxCell id="5mWyYVNw0OlHFR2ji4CQ-27" value="Component Diagram" style="shape=partialRectangle;html=1;whiteSpace=wrap;connectable=0;strokeColor=#666666;overflow=hidden;fillColor=#f5f5f5;top=0;left=0;bottom=0;right=0;pointerEvents=1;gradientColor=#b3b3b3;" vertex="1" parent="5mWyYVNw0OlHFR2ji4CQ-26">
          <mxGeometry width="260" height="60" as="geometry">
            <mxRectangle width="260" height="60" as="alternateBounds" />
          </mxGeometry>
        </mxCell>
        <mxCell id="5mWyYVNw0OlHFR2ji4CQ-28" value="Visualizes the components of a system and their dependencies, useful in system architecture." style="shape=partialRectangle;html=1;whiteSpace=wrap;connectable=0;strokeColor=#666666;overflow=hidden;fillColor=#f5f5f5;top=0;left=0;bottom=0;right=0;pointerEvents=1;gradientColor=#b3b3b3;" vertex="1" parent="5mWyYVNw0OlHFR2ji4CQ-26">
          <mxGeometry x="260" width="300" height="60" as="geometry">
            <mxRectangle width="300" height="60" as="alternateBounds" />
          </mxGeometry>
        </mxCell>
        <mxCell id="5mWyYVNw0OlHFR2ji4CQ-29" value="" style="shape=tableRow;horizontal=0;startSize=0;swimlaneHead=0;swimlaneBody=0;strokeColor=#666666;top=0;left=0;bottom=0;right=0;collapsible=0;dropTarget=0;fillColor=#f5f5f5;points=[[0,0.5],[1,0.5]];portConstraint=eastwest;gradientColor=#b3b3b3;" vertex="1" parent="5mWyYVNw0OlHFR2ji4CQ-1">
          <mxGeometry y="510" width="560" height="60" as="geometry" />
        </mxCell>
        <mxCell id="5mWyYVNw0OlHFR2ji4CQ-30" value="Deployment Diagram" style="shape=partialRectangle;html=1;whiteSpace=wrap;connectable=0;strokeColor=#666666;overflow=hidden;fillColor=#f5f5f5;top=0;left=0;bottom=0;right=0;pointerEvents=1;gradientColor=#b3b3b3;" vertex="1" parent="5mWyYVNw0OlHFR2ji4CQ-29">
          <mxGeometry width="260" height="60" as="geometry">
            <mxRectangle width="260" height="60" as="alternateBounds" />
          </mxGeometry>
        </mxCell>
        <mxCell id="5mWyYVNw0OlHFR2ji4CQ-31" value="Shows the physical deployment of software components across hardware environments (e.g., servers, devices)." style="shape=partialRectangle;html=1;whiteSpace=wrap;connectable=0;strokeColor=#666666;overflow=hidden;fillColor=#f5f5f5;top=0;left=0;bottom=0;right=0;pointerEvents=1;gradientColor=#b3b3b3;" vertex="1" parent="5mWyYVNw0OlHFR2ji4CQ-29">
          <mxGeometry x="260" width="300" height="60" as="geometry">
            <mxRectangle width="300" height="60" as="alternateBounds" />
          </mxGeometry>
        </mxCell>
        <mxCell id="5mWyYVNw0OlHFR2ji4CQ-32" value="" style="shape=tableRow;horizontal=0;startSize=0;swimlaneHead=0;swimlaneBody=0;strokeColor=#666666;top=0;left=0;bottom=0;right=0;collapsible=0;dropTarget=0;fillColor=#f5f5f5;points=[[0,0.5],[1,0.5]];portConstraint=eastwest;gradientColor=#b3b3b3;" vertex="1" parent="5mWyYVNw0OlHFR2ji4CQ-1">
          <mxGeometry y="570" width="560" height="40" as="geometry" />
        </mxCell>
        <mxCell id="5mWyYVNw0OlHFR2ji4CQ-33" value="Mind Map" style="shape=partialRectangle;html=1;whiteSpace=wrap;connectable=0;strokeColor=#666666;overflow=hidden;fillColor=#f5f5f5;top=0;left=0;bottom=0;right=0;pointerEvents=1;gradientColor=#b3b3b3;" vertex="1" parent="5mWyYVNw0OlHFR2ji4CQ-32">
          <mxGeometry width="260" height="40" as="geometry">
            <mxRectangle width="260" height="40" as="alternateBounds" />
          </mxGeometry>
        </mxCell>
        <mxCell id="5mWyYVNw0OlHFR2ji4CQ-34" value="Represents hierarchical information, useful for brainstorming and organizing ideas visually." style="shape=partialRectangle;html=1;whiteSpace=wrap;connectable=0;strokeColor=#666666;overflow=hidden;fillColor=#f5f5f5;top=0;left=0;bottom=0;right=0;pointerEvents=1;gradientColor=#b3b3b3;" vertex="1" parent="5mWyYVNw0OlHFR2ji4CQ-32">
          <mxGeometry x="260" width="300" height="40" as="geometry">
            <mxRectangle width="300" height="40" as="alternateBounds" />
          </mxGeometry>
        </mxCell>
      </root>
    </mxGraphModel>
  </diagram>
  <diagram id="ubawMZtKQ2W_tbqP4hY0" name="PÃ¡gina-2">
    <mxGraphModel dx="1042" dy="535" grid="1" gridSize="10" guides="1" tooltips="1" connect="1" arrows="1" fold="1" page="1" pageScale="1" pageWidth="827" pageHeight="1169" math="0" shadow="0">
      <root>
        <mxCell id="0" />
        <mxCell id="1" parent="0" />
        <mxCell id="fSl6shPPz0e88EEpZett-1" value="Application Modeling" style="ellipse;whiteSpace=wrap;html=1;fillColor=#cce5ff;strokeColor=#36393d;" vertex="1" parent="1">
          <mxGeometry x="309" y="180" width="210" height="140" as="geometry" />
        </mxCell>
        <mxCell id="fSl6shPPz0e88EEpZett-2" value="Principles of modeling:&lt;div&gt;Abstraction, Accuracy, Scalability&lt;/div&gt;" style="rounded=1;whiteSpace=wrap;html=1;fillColor=#cdeb8b;strokeColor=#36393d;" vertex="1" parent="1">
          <mxGeometry x="130" y="60" width="200" height="90" as="geometry" />
        </mxCell>
        <mxCell id="fSl6shPPz0e88EEpZett-3" value="Key Contributors: Booch, Jacobson, Rumbaugh" style="rounded=1;whiteSpace=wrap;html=1;fillColor=#f9f7ed;strokeColor=#36393d;" vertex="1" parent="1">
          <mxGeometry x="130" y="350" width="200" height="90" as="geometry" />
        </mxCell>
        <mxCell id="fSl6shPPz0e88EEpZett-4" value="Fields of Application: Software Development, Business Analysis, Engineering" style="rounded=1;whiteSpace=wrap;html=1;fillColor=#ffcc99;strokeColor=#36393d;" vertex="1" parent="1">
          <mxGeometry x="519" y="350" width="200" height="90" as="geometry" />
        </mxCell>
        <mxCell id="fSl6shPPz0e88EEpZett-5" value="Features of models: Clarity, Consistency, Maintainability" style="rounded=1;whiteSpace=wrap;html=1;fillColor=#ffcccc;strokeColor=#36393d;" vertex="1" parent="1">
          <mxGeometry x="519" y="60" width="200" height="90" as="geometry" />
        </mxCell>
        <mxCell id="fSl6shPPz0e88EEpZett-6" value="" style="endArrow=classic;html=1;rounded=0;exitX=1;exitY=1;exitDx=0;exitDy=0;entryX=0.214;entryY=0.071;entryDx=0;entryDy=0;entryPerimeter=0;" edge="1" parent="1" source="fSl6shPPz0e88EEpZett-2" target="fSl6shPPz0e88EEpZett-1">
          <mxGeometry width="50" height="50" relative="1" as="geometry">
            <mxPoint x="420" y="310" as="sourcePoint" />
            <mxPoint x="370" y="180" as="targetPoint" />
          </mxGeometry>
        </mxCell>
        <mxCell id="fSl6shPPz0e88EEpZett-7" value="" style="endArrow=classic;html=1;rounded=0;entryX=1;entryY=0;entryDx=0;entryDy=0;exitX=0;exitY=1;exitDx=0;exitDy=0;" edge="1" parent="1" source="fSl6shPPz0e88EEpZett-5" target="fSl6shPPz0e88EEpZett-1">
          <mxGeometry width="50" height="50" relative="1" as="geometry">
            <mxPoint x="420" y="310" as="sourcePoint" />
            <mxPoint x="470" y="260" as="targetPoint" />
          </mxGeometry>
        </mxCell>
        <mxCell id="fSl6shPPz0e88EEpZett-8" value="" style="endArrow=classic;html=1;rounded=0;exitX=1;exitY=0;exitDx=0;exitDy=0;" edge="1" parent="1" source="fSl6shPPz0e88EEpZett-3" target="fSl6shPPz0e88EEpZett-1">
          <mxGeometry width="50" height="50" relative="1" as="geometry">
            <mxPoint x="420" y="310" as="sourcePoint" />
            <mxPoint x="470" y="260" as="targetPoint" />
          </mxGeometry>
        </mxCell>
        <mxCell id="fSl6shPPz0e88EEpZett-9" value="" style="endArrow=classic;html=1;rounded=0;exitX=0;exitY=0;exitDx=0;exitDy=0;" edge="1" parent="1" source="fSl6shPPz0e88EEpZett-4">
          <mxGeometry width="50" height="50" relative="1" as="geometry">
            <mxPoint x="420" y="310" as="sourcePoint" />
            <mxPoint x="490" y="300" as="targetPoint" />
          </mxGeometry>
        </mxCell>
      </root>
    </mxGraphModel>
  </diagram>
  <diagram id="hGQq-AJYeoNJKcIOAWGf" name="PÃ¡gina-3">
    <mxGraphModel dx="2084" dy="1070" grid="1" gridSize="10" guides="1" tooltips="1" connect="1" arrows="1" fold="1" page="1" pageScale="1" pageWidth="827" pageHeight="1169" math="0" shadow="0">
      <root>
        <mxCell id="0" />
        <mxCell id="1" parent="0" />
        <mxCell id="1pXFopQXPihKjHNSDO6Q-1" value="Requirement Analysis" style="rounded=1;whiteSpace=wrap;html=1;fillColor=#dae8fc;strokeColor=#6c8ebf;" vertex="1" parent="1">
          <mxGeometry x="20" y="80" width="140" height="60" as="geometry" />
        </mxCell>
        <mxCell id="1pXFopQXPihKjHNSDO6Q-2" value="System Design" style="rounded=1;whiteSpace=wrap;html=1;fillColor=#d5e8d4;strokeColor=#82b366;" vertex="1" parent="1">
          <mxGeometry x="190" y="140" width="120" height="60" as="geometry" />
        </mxCell>
        <mxCell id="1pXFopQXPihKjHNSDO6Q-3" value="Implementation" style="rounded=1;whiteSpace=wrap;html=1;fillColor=#ffe6cc;strokeColor=#d79b00;" vertex="1" parent="1">
          <mxGeometry x="354" y="210" width="120" height="60" as="geometry" />
        </mxCell>
        <mxCell id="1pXFopQXPihKjHNSDO6Q-4" value="Testing" style="rounded=1;whiteSpace=wrap;html=1;fillColor=#fff2cc;strokeColor=#d6b656;" vertex="1" parent="1">
          <mxGeometry x="510" y="270" width="120" height="60" as="geometry" />
        </mxCell>
        <mxCell id="1pXFopQXPihKjHNSDO6Q-5" value="Development" style="rounded=1;whiteSpace=wrap;html=1;fillColor=#f8cecc;strokeColor=#b85450;" vertex="1" parent="1">
          <mxGeometry x="660" y="320" width="120" height="60" as="geometry" />
        </mxCell>
        <mxCell id="1pXFopQXPihKjHNSDO6Q-6" value="Maintenance" style="rounded=1;whiteSpace=wrap;html=1;fillColor=#e1d5e7;strokeColor=#9673a6;" vertex="1" parent="1">
          <mxGeometry x="820" y="380" width="120" height="60" as="geometry" />
        </mxCell>
        <mxCell id="1pXFopQXPihKjHNSDO6Q-12" value="&lt;font style=&quot;font-size: 15px;&quot;&gt;Cascade Model&lt;/font&gt;" style="text;html=1;align=center;verticalAlign=middle;whiteSpace=wrap;rounded=0;" vertex="1" parent="1">
          <mxGeometry x="40" y="30" width="60" height="30" as="geometry" />
        </mxCell>
        <mxCell id="1pXFopQXPihKjHNSDO6Q-13" value="" style="curved=1;endArrow=classic;html=1;rounded=0;" edge="1" parent="1">
          <mxGeometry width="50" height="50" relative="1" as="geometry">
            <mxPoint x="326" y="750" as="sourcePoint" />
            <mxPoint x="270" y="910" as="targetPoint" />
            <Array as="points">
              <mxPoint x="286" y="770" />
              <mxPoint x="276" y="710" />
              <mxPoint x="346" y="700" />
              <mxPoint x="386" y="760" />
              <mxPoint x="286" y="820" />
              <mxPoint x="226" y="720" />
              <mxPoint x="316" y="650" />
              <mxPoint x="406" y="710" />
              <mxPoint x="396" y="800" />
              <mxPoint x="296" y="850" />
              <mxPoint x="190" y="780" />
              <mxPoint x="210" y="660" />
              <mxPoint x="340" y="610" />
              <mxPoint x="420" y="680" />
              <mxPoint x="440" y="760" />
              <mxPoint x="410" y="840" />
              <mxPoint x="270" y="890" />
              <mxPoint x="150" y="800" />
              <mxPoint x="190" y="600" />
              <mxPoint x="410" y="580" />
              <mxPoint x="490" y="760" />
              <mxPoint x="410" y="900" />
            </Array>
          </mxGeometry>
        </mxCell>
        <mxCell id="1pXFopQXPihKjHNSDO6Q-14" value="" style="endArrow=none;dashed=1;html=1;dashPattern=1 3;strokeWidth=2;rounded=0;" edge="1" parent="1">
          <mxGeometry width="50" height="50" relative="1" as="geometry">
            <mxPoint x="320" y="950" as="sourcePoint" />
            <mxPoint x="320" y="560" as="targetPoint" />
          </mxGeometry>
        </mxCell>
        <mxCell id="1pXFopQXPihKjHNSDO6Q-15" value="" style="endArrow=none;dashed=1;html=1;dashPattern=1 3;strokeWidth=2;rounded=0;" edge="1" parent="1">
          <mxGeometry width="50" height="50" relative="1" as="geometry">
            <mxPoint x="500" y="740" as="sourcePoint" />
            <mxPoint x="140" y="740" as="targetPoint" />
          </mxGeometry>
        </mxCell>
        <mxCell id="1pXFopQXPihKjHNSDO6Q-24" value="Planning" style="text;html=1;align=center;verticalAlign=middle;whiteSpace=wrap;rounded=0;" vertex="1" parent="1">
          <mxGeometry x="140" y="610" width="60" height="30" as="geometry" />
        </mxCell>
        <mxCell id="1pXFopQXPihKjHNSDO6Q-25" value="Risk Analysis" style="text;html=1;align=center;verticalAlign=middle;whiteSpace=wrap;rounded=0;" vertex="1" parent="1">
          <mxGeometry x="450" y="640" width="60" height="30" as="geometry" />
        </mxCell>
        <mxCell id="1pXFopQXPihKjHNSDO6Q-30" value="Development" style="text;html=1;align=center;verticalAlign=middle;whiteSpace=wrap;rounded=0;" vertex="1" parent="1">
          <mxGeometry x="160" y="850" width="60" height="30" as="geometry" />
        </mxCell>
        <mxCell id="1pXFopQXPihKjHNSDO6Q-32" value="Evaluation" style="text;html=1;align=center;verticalAlign=middle;whiteSpace=wrap;rounded=0;" vertex="1" parent="1">
          <mxGeometry x="440" y="840" width="60" height="30" as="geometry" />
        </mxCell>
        <mxCell id="1pXFopQXPihKjHNSDO6Q-36" value="" style="edgeStyle=elbowEdgeStyle;elbow=horizontal;endArrow=classic;html=1;curved=0;rounded=0;endSize=8;startSize=8;exitX=1;exitY=0.5;exitDx=0;exitDy=0;entryX=0;entryY=0.5;entryDx=0;entryDy=0;" edge="1" parent="1" source="1pXFopQXPihKjHNSDO6Q-1" target="1pXFopQXPihKjHNSDO6Q-2">
          <mxGeometry width="50" height="50" relative="1" as="geometry">
            <mxPoint x="85" y="240" as="sourcePoint" />
            <mxPoint x="130" y="340" as="targetPoint" />
          </mxGeometry>
        </mxCell>
        <mxCell id="1pXFopQXPihKjHNSDO6Q-37" value="" style="edgeStyle=elbowEdgeStyle;elbow=horizontal;endArrow=classic;html=1;curved=0;rounded=0;endSize=8;startSize=8;exitX=1;exitY=0.5;exitDx=0;exitDy=0;entryX=0;entryY=0.5;entryDx=0;entryDy=0;" edge="1" parent="1" source="1pXFopQXPihKjHNSDO6Q-2" target="1pXFopQXPihKjHNSDO6Q-3">
          <mxGeometry width="50" height="50" relative="1" as="geometry">
            <mxPoint x="340" y="170" as="sourcePoint" />
            <mxPoint x="380" y="230" as="targetPoint" />
          </mxGeometry>
        </mxCell>
        <mxCell id="1pXFopQXPihKjHNSDO6Q-38" value="" style="edgeStyle=elbowEdgeStyle;elbow=horizontal;endArrow=classic;html=1;curved=0;rounded=0;endSize=8;startSize=8;exitX=1;exitY=0.5;exitDx=0;exitDy=0;entryX=0;entryY=0.5;entryDx=0;entryDy=0;" edge="1" parent="1" source="1pXFopQXPihKjHNSDO6Q-3" target="1pXFopQXPihKjHNSDO6Q-4">
          <mxGeometry width="50" height="50" relative="1" as="geometry">
            <mxPoint x="399" y="300" as="sourcePoint" />
            <mxPoint x="429" y="370" as="targetPoint" />
          </mxGeometry>
        </mxCell>
        <mxCell id="1pXFopQXPihKjHNSDO6Q-39" value="" style="edgeStyle=elbowEdgeStyle;elbow=horizontal;endArrow=classic;html=1;curved=0;rounded=0;endSize=8;startSize=8;exitX=1;exitY=0.5;exitDx=0;exitDy=0;entryX=0;entryY=0.5;entryDx=0;entryDy=0;" edge="1" parent="1" source="1pXFopQXPihKjHNSDO6Q-4" target="1pXFopQXPihKjHNSDO6Q-5">
          <mxGeometry width="50" height="50" relative="1" as="geometry">
            <mxPoint x="620" y="290" as="sourcePoint" />
            <mxPoint x="650" y="340" as="targetPoint" />
          </mxGeometry>
        </mxCell>
        <mxCell id="1pXFopQXPihKjHNSDO6Q-40" value="" style="edgeStyle=elbowEdgeStyle;elbow=horizontal;endArrow=classic;html=1;curved=0;rounded=0;endSize=8;startSize=8;exitX=1;exitY=0.5;exitDx=0;exitDy=0;entryX=0;entryY=0.5;entryDx=0;entryDy=0;" edge="1" parent="1" source="1pXFopQXPihKjHNSDO6Q-5" target="1pXFopQXPihKjHNSDO6Q-6">
          <mxGeometry width="50" height="50" relative="1" as="geometry">
            <mxPoint x="750" y="380" as="sourcePoint" />
            <mxPoint x="780" y="450" as="targetPoint" />
          </mxGeometry>
        </mxCell>
        <mxCell id="1pXFopQXPihKjHNSDO6Q-41" value="&lt;font style=&quot;font-size: 15px;&quot;&gt;Spiral Model&lt;/font&gt;" style="text;html=1;align=center;verticalAlign=middle;whiteSpace=wrap;rounded=0;" vertex="1" parent="1">
          <mxGeometry x="90" y="510" width="60" height="30" as="geometry" />
        </mxCell>
        <mxCell id="1pXFopQXPihKjHNSDO6Q-46" value="Analysis" style="text;html=1;align=center;verticalAlign=middle;whiteSpace=wrap;rounded=0;" vertex="1" parent="1">
          <mxGeometry x="1252.5" y="750" width="60" height="30" as="geometry" />
        </mxCell>
        <mxCell id="1pXFopQXPihKjHNSDO6Q-47" value="Planning" style="text;html=1;align=center;verticalAlign=middle;whiteSpace=wrap;rounded=0;" vertex="1" parent="1">
          <mxGeometry x="1155" y="712.5" width="60" height="30" as="geometry" />
        </mxCell>
        <mxCell id="1pXFopQXPihKjHNSDO6Q-48" value="Design" style="text;html=1;align=center;verticalAlign=middle;whiteSpace=wrap;rounded=0;" vertex="1" parent="1">
          <mxGeometry x="1252.5" y="825" width="60" height="30" as="geometry" />
        </mxCell>
        <mxCell id="1pXFopQXPihKjHNSDO6Q-49" value="Implementation" style="text;html=1;align=center;verticalAlign=middle;whiteSpace=wrap;rounded=0;" vertex="1" parent="1">
          <mxGeometry x="1181" y="890" width="60" height="30" as="geometry" />
        </mxCell>
        <mxCell id="1pXFopQXPihKjHNSDO6Q-50" value="Testing" style="text;html=1;align=center;verticalAlign=middle;whiteSpace=wrap;rounded=0;" vertex="1" parent="1">
          <mxGeometry x="1101.19" y="850" width="60" height="30" as="geometry" />
        </mxCell>
        <mxCell id="1pXFopQXPihKjHNSDO6Q-51" value="Evaluation" style="text;html=1;align=center;verticalAlign=middle;whiteSpace=wrap;rounded=0;" vertex="1" parent="1">
          <mxGeometry x="1070" y="780" width="60" height="30" as="geometry" />
        </mxCell>
        <mxCell id="1pXFopQXPihKjHNSDO6Q-57" value="" style="shape=singleArrow;whiteSpace=wrap;html=1;rotation=0;" vertex="1" parent="1">
          <mxGeometry x="1161.1899999999998" y="742.5" width="57.63" height="25" as="geometry" />
        </mxCell>
        <mxCell id="1pXFopQXPihKjHNSDO6Q-58" value="" style="shape=singleArrow;whiteSpace=wrap;html=1;rotation=55;" vertex="1" parent="1">
          <mxGeometry x="1220" y="767.5" width="55" height="25" as="geometry" />
        </mxCell>
        <mxCell id="1pXFopQXPihKjHNSDO6Q-59" value="" style="shape=singleArrow;whiteSpace=wrap;html=1;rotation=30;direction=south;" vertex="1" parent="1">
          <mxGeometry x="1241" y="810" width="25" height="55" as="geometry" />
        </mxCell>
        <mxCell id="1pXFopQXPihKjHNSDO6Q-61" value="" style="shape=singleArrow;whiteSpace=wrap;html=1;rotation=-155;direction=south;" vertex="1" parent="1">
          <mxGeometry x="1130" y="767.5" width="25" height="55" as="geometry" />
        </mxCell>
        <mxCell id="1pXFopQXPihKjHNSDO6Q-63" value="" style="shape=singleArrow;whiteSpace=wrap;html=1;rotation=90;direction=south;" vertex="1" parent="1">
          <mxGeometry x="1195" y="850" width="25" height="55" as="geometry" />
        </mxCell>
        <mxCell id="1pXFopQXPihKjHNSDO6Q-65" value="" style="shape=singleArrow;whiteSpace=wrap;html=1;rotation=135;direction=south;" vertex="1" parent="1">
          <mxGeometry x="1140" y="825" width="25" height="55" as="geometry" />
        </mxCell>
        <mxCell id="1pXFopQXPihKjHNSDO6Q-67" value="&lt;font style=&quot;font-size: 15px;&quot;&gt;Iterative Model&lt;/font&gt;" style="text;html=1;align=center;verticalAlign=middle;whiteSpace=wrap;rounded=0;" vertex="1" parent="1">
          <mxGeometry x="1041.19" y="660" width="60" height="30" as="geometry" />
        </mxCell>
        <mxCell id="1pXFopQXPihKjHNSDO6Q-71" value="" style="endArrow=classic;html=1;rounded=0;" edge="1" parent="1">
          <mxGeometry width="50" height="50" relative="1" as="geometry">
            <mxPoint x="1119" y="120" as="sourcePoint" />
            <mxPoint x="1279" y="380" as="targetPoint" />
          </mxGeometry>
        </mxCell>
        <mxCell id="1pXFopQXPihKjHNSDO6Q-72" value="" style="endArrow=classic;html=1;rounded=0;" edge="1" parent="1">
          <mxGeometry width="50" height="50" relative="1" as="geometry">
            <mxPoint x="1439" y="120" as="sourcePoint" />
            <mxPoint x="1279" y="380" as="targetPoint" />
          </mxGeometry>
        </mxCell>
        <mxCell id="1pXFopQXPihKjHNSDO6Q-73" value="Requirement Analysis" style="rounded=0;whiteSpace=wrap;html=1;fillColor=#dae8fc;gradientColor=#7ea6e0;strokeColor=#6c8ebf;" vertex="1" parent="1">
          <mxGeometry x="1060" y="150" width="140" height="30" as="geometry" />
        </mxCell>
        <mxCell id="1pXFopQXPihKjHNSDO6Q-74" value="System Design" style="rounded=0;whiteSpace=wrap;html=1;fillColor=#d5e8d4;gradientColor=#97d077;strokeColor=#82b366;" vertex="1" parent="1">
          <mxGeometry x="1110" y="220" width="100" height="30" as="geometry" />
        </mxCell>
        <mxCell id="1pXFopQXPihKjHNSDO6Q-76" value="Implementation" style="rounded=0;whiteSpace=wrap;html=1;fillColor=#fff2cc;gradientColor=#ffd966;strokeColor=#d6b656;" vertex="1" parent="1">
          <mxGeometry x="1151.5" y="290" width="100" height="30" as="geometry" />
        </mxCell>
        <mxCell id="1pXFopQXPihKjHNSDO6Q-77" value="Acceptance Testing" style="rounded=0;whiteSpace=wrap;html=1;fillColor=#ffcd28;gradientColor=#ffa500;strokeColor=#d79b00;" vertex="1" parent="1">
          <mxGeometry x="1359" y="150" width="120" height="30" as="geometry" />
        </mxCell>
        <mxCell id="1pXFopQXPihKjHNSDO6Q-78" value="System Testing" style="rounded=0;whiteSpace=wrap;html=1;fillColor=#e6d0de;gradientColor=#d5739d;strokeColor=#996185;" vertex="1" parent="1">
          <mxGeometry x="1309" y="290" width="100" height="30" as="geometry" />
        </mxCell>
        <mxCell id="1pXFopQXPihKjHNSDO6Q-79" value="Unit Testing" style="rounded=0;whiteSpace=wrap;html=1;fillColor=#f8cecc;gradientColor=#ea6b66;strokeColor=#b85450;" vertex="1" parent="1">
          <mxGeometry x="1349" y="220" width="77.5" height="30" as="geometry" />
        </mxCell>
        <mxCell id="1pXFopQXPihKjHNSDO6Q-84" value="" style="endArrow=classic;html=1;rounded=0;exitX=1;exitY=0.5;exitDx=0;exitDy=0;entryX=0;entryY=0.5;entryDx=0;entryDy=0;" edge="1" parent="1" source="1pXFopQXPihKjHNSDO6Q-73" target="1pXFopQXPihKjHNSDO6Q-77">
          <mxGeometry width="50" height="50" relative="1" as="geometry">
            <mxPoint x="1210" y="170" as="sourcePoint" />
            <mxPoint x="1260" y="120" as="targetPoint" />
          </mxGeometry>
        </mxCell>
        <mxCell id="1pXFopQXPihKjHNSDO6Q-85" value="" style="endArrow=classic;html=1;rounded=0;exitX=1;exitY=0.5;exitDx=0;exitDy=0;" edge="1" parent="1" source="1pXFopQXPihKjHNSDO6Q-74">
          <mxGeometry width="50" height="50" relative="1" as="geometry">
            <mxPoint x="1219" y="234.57" as="sourcePoint" />
            <mxPoint x="1349" y="235" as="targetPoint" />
          </mxGeometry>
        </mxCell>
        <mxCell id="1pXFopQXPihKjHNSDO6Q-86" value="" style="endArrow=classic;html=1;rounded=0;exitX=1;exitY=0.5;exitDx=0;exitDy=0;entryX=0;entryY=0.5;entryDx=0;entryDy=0;" edge="1" parent="1" source="1pXFopQXPihKjHNSDO6Q-76" target="1pXFopQXPihKjHNSDO6Q-78">
          <mxGeometry width="50" height="50" relative="1" as="geometry">
            <mxPoint x="1220" y="185" as="sourcePoint" />
            <mxPoint x="1379" y="185" as="targetPoint" />
          </mxGeometry>
        </mxCell>
        <mxCell id="1pXFopQXPihKjHNSDO6Q-87" value="&lt;font style=&quot;font-size: 15px;&quot;&gt;V-Model&lt;/font&gt;" style="text;html=1;align=center;verticalAlign=middle;whiteSpace=wrap;rounded=0;" vertex="1" parent="1">
          <mxGeometry x="960" y="95" width="60" height="30" as="geometry" />
        </mxCell>
      </root>
    </mxGraphModel>
  </diagram>
</mxfile>
